<?xml version="1.0" encoding="UTF-8"?>
<svg id="Layer_1" xmlns="http://www.w3.org/2000/svg" viewBox="0 0 512 512">
  <defs>
    <style>
      .cls-1 {
        fill: #c9c9c9;
      }

      .cls-2 {
        fill: #fff;
      }
    </style>
  </defs>
  <rect class="cls-1" x="96" y="111.67" width="312" height="374"/>
  <path class="cls-1" d="M469.33,85.33h-106.67v-42.67c0-23.56-19.1-42.67-42.67-42.67h-128c-23.56,0-42.67,19.1-42.67,42.67v42.67H42.67v42.67h42.67v320c0,35.35,28.65,64,64,64h213.33c35.35,0,64-28.65,64-64V128h42.67v-42.67ZM192,42.67h128v42.67h-128v-42.67ZM384,448c0,11.78-9.55,21.33-21.33,21.33h-213.33c-11.78,0-21.33-9.55-21.33-21.33V128h256v320Z"/>
  <rect class="cls-2" x="192" y="213.33" width="42.67" height="170.67"/>
  <rect class="cls-2" x="277.33" y="213.33" width="42.67" height="170.67"/>
</svg>